<svg width="800" height="800" viewBox="0 0 800 800" fill="none" xmlns="http://www.w3.org/2000/svg">
<g clip-path="url(#clip0_86_104)">
<path d="M693.003 284.2L692.881 284.211C671.767 285.04 655.184 296.851 643.074 305.469L642.179 306.098C630.534 314.451 627.838 314.915 619.254 315.39C614.16 315.688 607.1 315.059 602.36 310.319C597.621 305.579 596.991 298.519 597.278 293.437L601.046 230.294C604.371 176.344 586.174 126.593 549.792 90.2098C513.409 53.827 463.69 35.5969 409.696 38.9446C335.14 43.6955 261.646 78.7193 202.679 137.685C134.521 205.844 92.1498 299.856 86.3383 395.691C80.7035 486.996 111.43 571.042 172.782 632.395C234.135 693.748 318.214 724.44 409.475 718.828C454.763 716.055 499.708 704.122 543.096 683.362C584.766 663.333 622.805 636.497 655.648 603.956L657.647 601.956C725.044 534.56 766.498 447.652 771.436 363.54C772.696 343.365 765.161 323.787 750.201 308.408C734.777 292.52 713.387 283.46 693.003 284.2ZM187.863 506.055C180.871 499.062 176.109 490.153 174.179 480.454C172.25 470.755 173.24 460.702 177.025 451.565C180.809 442.429 187.218 434.62 195.44 429.126C203.663 423.632 213.33 420.7 223.219 420.7C233.108 420.7 242.775 423.632 250.997 429.126C259.22 434.62 265.628 442.429 269.413 451.565C273.197 460.702 274.187 470.755 272.258 480.454C270.329 490.153 265.567 499.062 258.574 506.055C249.197 515.432 236.479 520.7 223.219 520.7C209.958 520.7 197.24 515.432 187.863 506.055ZM381.213 611.016C374.22 618.009 365.311 622.771 355.612 624.7C345.913 626.629 335.86 625.639 326.723 621.855C317.587 618.07 309.778 611.662 304.284 603.439C298.79 595.217 295.858 585.55 295.858 575.661C295.858 565.772 298.79 556.105 304.284 547.882C309.778 539.66 317.587 533.251 326.723 529.467C335.86 525.682 345.913 524.692 355.612 526.621C365.311 528.551 374.22 533.313 381.213 540.305C390.59 549.682 395.858 562.4 395.858 575.661C395.858 588.922 390.59 601.639 381.213 611.016ZM205.541 346.956C198.548 339.963 193.786 331.054 191.857 321.355C189.928 311.656 190.918 301.603 194.702 292.466C198.487 283.33 204.895 275.521 213.118 270.027C221.34 264.533 231.007 261.601 240.896 261.601C250.785 261.601 260.452 264.533 268.675 270.027C276.897 275.521 283.306 283.33 287.09 292.466C290.875 301.603 291.865 311.656 289.936 321.355C288.006 331.054 283.244 339.963 276.252 346.956C266.875 356.333 254.157 361.601 240.896 361.601C227.636 361.601 214.918 356.333 205.541 346.956ZM575.667 575.661C565.178 586.15 551.815 593.293 537.266 596.187C522.717 599.081 507.637 597.595 493.933 591.919C480.228 586.242 468.515 576.629 460.274 564.295C452.033 551.962 447.634 537.461 447.634 522.628C447.634 507.794 452.033 493.294 460.274 480.96C468.515 468.626 480.228 459.013 493.933 453.337C507.637 447.66 522.717 446.175 537.266 449.069C551.815 451.963 565.178 459.106 575.667 469.595C589.732 483.66 597.634 502.736 597.634 522.628C597.634 542.519 589.732 561.596 575.667 575.661ZM391.157 232.051C384.164 239.044 375.255 243.806 365.556 245.735C355.857 247.664 345.803 246.674 336.667 242.89C327.531 239.105 319.722 232.697 314.228 224.474C308.734 216.252 305.801 206.585 305.801 196.696C305.801 186.807 308.734 177.14 314.228 168.917C319.722 160.695 327.531 154.286 336.667 150.502C345.803 146.717 355.857 145.727 365.556 147.656C375.255 149.586 384.164 154.348 391.157 161.34C400.533 170.717 405.801 183.435 405.801 196.696C405.801 209.957 400.533 222.674 391.157 232.051Z" fill="black"/>
</g>
<defs>
<clipPath id="clip0_86_104">
<rect width="800" height="800" fill="white"/>
</clipPath>
</defs>
</svg>
