<svg width="285" height="332" viewBox="0 0 285 332" fill="none" xmlns="http://www.w3.org/2000/svg">
<path d="M69.756 59.7429C58.331 61.0269 50.1217 71.3654 51.4277 82.7904L60.065 158.112C60.6687 163.38 63.2807 167.934 66.9464 171.216C68.2963 173.619 70.1401 175.76 72.5875 177.351L116.191 206.073V264.163C116.191 272.12 122.623 278.551 130.579 278.551C138.514 278.551 144.924 272.12 144.924 264.163V190.784C144.924 190.675 144.902 190.565 144.902 190.488C144.946 184.66 142.158 178.931 136.945 175.485L101.32 152.043L94.5046 92.613H154.373C160.848 92.613 166.073 87.356 166.073 80.9136C166.073 74.4713 160.837 69.2253 154.373 69.2253H89.5878C85.4502 62.75 77.8994 58.788 69.756 59.7429ZM176.148 70.4216L226.029 14.9978L217.886 7.61163L169.146 61.7842C172.087 64.078 174.49 67.0193 176.148 70.4216ZM116.894 135.844L144.737 105.092H129.921L108.739 128.468L116.894 135.844ZM284.153 233.916L274.209 236.254C276.185 244.595 271.059 252.936 262.872 254.966L0.547607 321.628L3.03894 331.659L265.298 265.041C279.06 261.716 287.478 247.778 284.153 233.916ZM78.075 218.354C81.0931 220.757 85.4722 220.241 87.8757 217.212C90.2792 214.216 89.7853 209.815 86.7562 207.411L41.5722 171.567C38.554 169.197 34.1531 169.701 31.7715 172.709C29.368 175.749 29.8618 180.15 32.8909 182.531L78.075 218.354ZM68.878 53.7395C83.5406 53.5859 95.3716 41.4476 95.3497 26.5984C95.3497 11.7712 83.365 -0.0928176 68.7024 0.0498574C54.0178 0.159607 42.099 12.298 42.1868 27.1471C42.2307 41.9524 54.1276 53.8493 68.878 53.7395Z" fill="black"/>
</svg>
