<svg width="640" height="904" viewBox="0 0 640 904" fill="none" xmlns="http://www.w3.org/2000/svg">
<path fill-rule="evenodd" clip-rule="evenodd" d="M109.764 420.85C124.675 419.092 253.139 419.483 281.861 420.286C304.458 420.92 298.286 444.539 298.286 462.594C298.286 476.695 299.485 628.108 297.67 634.511C293.413 649.51 261.711 644.304 248.742 644.304C216.357 644.304 102.846 646.118 76.1935 644.373C54.6434 642.963 61.6526 619.2 61.569 603.906C61.3484 564.254 85.4563 444.828 109.764 420.85ZM567.541 643.832L355.166 644.304L342.321 631.455C342.321 605.328 340.561 442.117 342.584 431.651C345.69 415.577 368.414 420.374 380.853 420.374L530.844 420.846C547.991 427.928 579.405 546.905 579.012 587.41C578.905 598.316 584.848 626.571 567.541 643.832ZM303.631 100.534C287.549 102.297 262.034 94.6868 252.021 109.793C244.114 121.721 249.374 139.609 278.061 139.591L401.036 139.553C401.135 193.012 354.085 202.595 337.291 215.282C300.249 243.257 302.952 262.062 292.464 309.935C222.701 315.352 250.872 291.919 204.233 343.132C195.556 338.983 134.794 341.519 120.294 341.448C96.706 341.331 72.745 346.857 58.6098 366.009C31.8351 402.289 10.7463 504.257 4.56838 559.74C1.60496 586.366 -1.83489 627.961 1.14628 653.364C4.66994 683.375 4.20587 698.986 10.3888 730.384L27.0336 800.314L613.883 800.316C613.964 799.388 627.423 747.037 629.973 731.982C632.059 719.668 633.677 707.582 635.522 695.316C637.37 683.015 636.681 668.094 638.845 656.425C640.045 649.958 640.336 604.796 639.596 594.719C635.616 540.521 626.781 483.706 609.536 432.067C604.169 415.996 594.42 385.975 585.648 371.531L445.389 341.137C441.406 319.22 426.574 310.192 404.745 310.21L333.146 310.248C333.146 289.087 335.136 272.313 350.106 257.468C371.623 236.134 373.547 243.769 393.728 229.521C432.146 202.393 435.807 176.647 442.033 138.032C445.653 139.647 579.59 144.693 592.701 134.882C598.765 130.343 603.173 121.085 599.074 112.184L546.151 100.535C554.853 84.0344 570.776 65.9618 555.183 34.9136C544.678 13.9907 526.205 0.10463 501.978 0.000600501C478.2 -0.100831 457.704 12.6544 446.908 33.0929C433.535 56.7316 436.59 76.3435 456.085 100.989L393.855 100.535C400.996 86.9961 418.668 66.3904 403.496 34.3049C374.201 -27.6472 277.318 0.898307 289.415 71.3327C291.806 85.2466 297.879 89.6204 303.631 100.534Z" fill="black"/>
<path fill-rule="evenodd" clip-rule="evenodd" d="M600.729 837.345H39.881C43.1613 855.301 57.3574 879.997 71.1985 891.656C90.0058 907.497 121.739 903.108 145.989 903.108H492.783C522.116 903.108 570.527 910.391 588.457 868.494C592.148 859.87 599.37 845.431 600.729 837.345Z" fill="black"/>
</svg>
