<?xml version="1.0" standalone="no"?>
<!DOCTYPE svg PUBLIC "-//W3C//DTD SVG 20010904//EN"
 "http://www.w3.org/TR/2001/REC-SVG-20010904/DTD/svg10.dtd">
<svg version="1.0" xmlns="http://www.w3.org/2000/svg"
 width="512.000000pt" height="512.000000pt" viewBox="0 0 512.000000 512.000000"
 preserveAspectRatio="xMidYMid meet">

<g transform="translate(0.000000,512.000000) scale(0.100000,-0.100000)">
<path d="M2775 5102 c-134 -40 -236 -122 -302 -242 -20 -36 -37 -66 -38 -68
-1 -1 -126 56 -277 127 -344 163 -415 182 -565 146 -105 -25 -191 -72 -264
-145 -60 -59 -76 -84 -154 -245 -93 -190 -107 -243 -86 -308 7 -20 26 -49 42
-65 19 -18 274 -145 702 -348 l672 -319 -905 -5 c-890 -5 -906 -5 -940 -26
-38 -22 -77 -72 -87 -113 -4 -14 48 -686 115 -1492 131 -1583 125 -1530 195
-1664 19 -35 65 -94 112 -141 64 -64 97 -90 165 -123 146 -71 136 -71 950 -71
811 0 805 0 946 69 189 94 322 279 353 491 5 41 56 629 112 1305 56 677 103
1231 104 1233 2 2 123 -54 270 -123 230 -110 273 -127 315 -127 58 1 100 21
135 65 36 45 172 335 190 404 47 179 -14 384 -154 515 -61 58 -89 74 -349 197
-155 74 -282 138 -282 142 0 3 11 31 24 60 79 172 40 385 -95 533 -50 55 -70
67 -278 168 -329 160 -373 177 -478 183 -67 4 -102 1 -148 -13z m396 -458
c123 -59 234 -116 247 -127 37 -34 46 -87 24 -144 -10 -26 -23 -47 -29 -46 -5
1 -154 70 -331 154 l-322 152 26 48 c30 54 79 82 130 74 17 -3 132 -53 255
-111z m-245 -488 c643 -305 1184 -567 1203 -582 39 -31 61 -78 61 -130 0 -51
-58 -177 -79 -171 -22 6 -2594 1228 -2604 1237 -10 9 54 138 80 162 34 31 86
49 129 44 27 -4 448 -198 1210 -560z m344 -923 c0 -21 -49 -626 -109 -1345
-98 -1170 -111 -1311 -131 -1355 -27 -61 -71 -107 -135 -141 l-50 -27 -714 -3
c-805 -3 -781 -5 -865 69 -26 23 -58 64 -72 92 -25 48 -29 83 -138 1394 -61
739 -110 1346 -107 1348 2 3 526 5 1163 5 l1158 0 0 -37z"/>
</g>
</svg>
