<?xml version="1.0" standalone="no"?>
<!DOCTYPE svg PUBLIC "-//W3C//DTD SVG 20010904//EN"
 "http://www.w3.org/TR/2001/REC-SVG-20010904/DTD/svg10.dtd">
<svg version="1.0" xmlns="http://www.w3.org/2000/svg"
 width="239.000000pt" height="239.000000pt" viewBox="0 0 239.000000 239.000000"
 preserveAspectRatio="xMidYMid meet">

<g transform="translate(0.000000,239.000000) scale(0.100000,-0.100000)"
fill="#000000" stroke="none">
<path d="M1594 1900 c-78 -39 -108 -142 -61 -211 38 -56 84 -82 140 -76 86 8
142 68 142 150 -1 67 -27 111 -80 137 -52 25 -89 25 -141 0z m132 -48 c62 -50
55 -150 -13 -181 -77 -35 -153 11 -153 94 0 65 39 105 102 105 26 0 52 -7 64
-18z"/>
<path d="M1168 1635 c-114 -51 -217 -100 -230 -109 -21 -14 -29 -12 -107 25
-47 22 -87 42 -90 45 -3 2 5 25 17 50 12 25 20 50 17 55 -13 21 -37 6 -57 -36
-12 -25 -27 -45 -32 -45 -6 0 -31 9 -55 20 -23 11 -47 17 -52 14 -21 -13 -6
-35 41 -59 l50 -25 -25 -51 c-27 -52 -26 -69 4 -69 13 0 26 16 40 50 12 28 23
50 24 50 2 0 75 -33 162 -74 88 -40 284 -131 435 -201 151 -69 314 -149 361
-176 48 -27 89 -49 92 -49 9 0 98 163 94 174 -2 5 -57 40 -123 76 l-119 66
-102 179 c-69 124 -107 181 -120 182 -10 1 -111 -40 -225 -92z m315 -133 l95
-167 111 -63 c61 -35 111 -65 111 -66 0 -2 -12 -24 -26 -50 l-26 -46 -31 19
c-18 10 -73 42 -124 70 -89 50 -93 54 -133 126 -23 41 -44 76 -48 79 -4 2 -40
-9 -81 -25 l-74 -28 -136 64 c-75 36 -137 68 -139 73 -3 10 364 181 389 182
11 0 49 -56 112 -168z m-72 -190 c24 -37 14 -40 -41 -12 -46 24 -48 27 -17 40
30 12 35 10 58 -28z"/>
<path d="M866 1327 c14 -65 28 -85 167 -224 l141 -143 -99 -147 c-54 -82 -101
-152 -105 -156 -8 -9 -63 16 -418 187 -133 65 -249 115 -257 112 -34 -13 -9
-35 93 -84 98 -46 521 -251 1066 -516 l220 -106 114 37 c111 37 136 53 114 75
-7 7 -42 0 -116 -25 l-105 -35 -258 123 c-141 68 -259 128 -261 133 -2 6 60
105 137 220 l139 209 -101 101 c-65 64 -122 110 -157 127 l-54 28 99 -107 c54
-59 111 -117 125 -130 l27 -22 -124 -185 c-68 -101 -128 -191 -133 -199 -9
-16 -30 -8 -77 28 l-23 17 91 135 c49 74 97 148 106 164 l15 29 -150 151 c-90
90 -156 165 -165 187 -9 21 -24 38 -37 42 -19 5 -21 3 -14 -26z"/>
</g>
</svg>
